<svg xmlns="http://www.w3.org/2000/svg" xmlns:xlink="http://www.w3.org/1999/xlink" width="300" zoomAndPan="magnify" viewBox="0 0 224.87999 225" height="300" preserveAspectRatio="xMidYMid meet" version="1.0"><defs><g/><clipPath id="id1"><path d="M 0 0.0585938 L 224.761719 0.0585938 L 224.761719 224.9375 L 0 224.9375 Z M 0 0.0585938 " clip-rule="nonzero"/></clipPath><clipPath id="id2"><path d="M 0 202.453125 L 224.761719 202.453125 L 224.761719 224.9375 L 0 224.9375 Z M 0 202.453125 " clip-rule="nonzero"/></clipPath><clipPath id="id3"><path d="M 55.09375 46.910156 L 169.691406 46.910156 L 169.691406 161.507812 L 55.09375 161.507812 Z M 55.09375 46.910156 " clip-rule="nonzero"/></clipPath></defs><g clip-path="url(#id1)"><path fill="#7ed957" d="M 0 0.0585938 L 224.878906 0.0585938 L 224.878906 224.941406 L 0 224.941406 Z M 0 0.0585938 " fill-opacity="1" fill-rule="nonzero"/><path fill="#ffffff" d="M 0 0.0585938 L 224.878906 0.0585938 L 224.878906 224.941406 L 0 224.941406 Z M 0 0.0585938 " fill-opacity="1" fill-rule="nonzero"/><path fill="#7ed957" d="M 0 0.0585938 L 224.878906 0.0585938 L 224.878906 224.941406 L 0 224.941406 Z M 0 0.0585938 " fill-opacity="1" fill-rule="nonzero"/></g><g clip-path="url(#id2)"><path fill="#003c25" d="M 0.03125 202.453125 L 224.847656 202.453125 L 224.847656 225.691406 L 0.03125 225.691406 L 0.03125 202.453125 " fill-opacity="1" fill-rule="nonzero"/></g><g clip-path="url(#id3)"><path fill="#008037" d="M 112.394531 161.507812 C 97.097656 161.507812 82.691406 155.554688 71.882812 144.71875 C 61.050781 133.910156 55.09375 119.507812 55.09375 104.207031 C 55.09375 88.910156 61.050781 74.503906 71.882812 63.695312 C 82.691406 52.863281 97.097656 46.910156 112.394531 46.910156 C 127.691406 46.910156 142.097656 52.863281 152.90625 63.695312 C 163.738281 74.527344 169.691406 88.910156 169.691406 104.207031 C 169.691406 119.507812 163.738281 133.910156 152.90625 144.71875 C 142.097656 155.554688 127.691406 161.507812 112.394531 161.507812 Z M 112.394531 50.34375 C 98.011719 50.34375 84.476562 55.957031 74.308594 66.125 C 64.140625 76.292969 58.53125 89.828125 58.53125 104.207031 C 58.53125 118.589844 64.140625 132.125 74.308594 142.292969 C 84.476562 152.460938 98.011719 158.070312 112.394531 158.070312 C 126.777344 158.070312 140.3125 152.460938 150.480469 142.292969 C 160.648438 132.125 166.257812 118.589844 166.257812 104.207031 C 166.257812 89.828125 160.648438 76.292969 150.480469 66.125 C 140.3125 55.957031 126.777344 50.34375 112.394531 50.34375 Z M 112.394531 50.34375 " fill-opacity="1" fill-rule="nonzero"/></g><g fill="#9f3f73" fill-opacity="1"><g transform="translate(98.456483, 126.840365)"><g><path d="M 21.621094 -14.761719 C 23.75 -15.328125 25.5 -16.558594 26.871094 -18.355469 C 28.242188 -20.152344 28.953125 -22.28125 28.953125 -24.695312 C 28.953125 -27.722656 27.910156 -30.277344 25.925781 -32.359375 C 23.890625 -34.441406 21.382812 -35.480469 18.402344 -35.480469 L 3.59375 -35.480469 L 3.59375 0 L 10.976562 0 L 10.976562 -14.003906 L 14.335938 -14.003906 L 23.132812 0 L 31.648438 0 Z M 17.363281 -20.105469 L 10.976562 -20.105469 L 10.976562 -28.90625 L 17.363281 -28.90625 C 18.640625 -28.90625 19.726562 -28.480469 20.578125 -27.628906 C 21.429688 -26.777344 21.855469 -25.734375 21.855469 -24.503906 C 21.855469 -23.226562 21.429688 -22.1875 20.578125 -21.335938 C 19.726562 -20.484375 18.640625 -20.105469 17.363281 -20.105469 Z M 17.363281 -20.105469 "/></g></g></g><path stroke-linecap="butt" transform="matrix(0.7496, 0, 0, 0.7496, 22.487998, 83.022689)" fill="none" stroke-linejoin="miter" d="M 127.735181 36.306822 C 130.570026 35.556422 132.909816 33.904499 134.744128 31.51781 C 136.562806 29.115486 137.51644 26.280641 137.51644 23.060173 C 137.51644 19.021561 136.130284 15.618704 133.483038 12.825547 C 130.752415 10.053235 127.412092 8.667079 123.436012 8.667079 L 103.680683 8.667079 L 103.680683 55.999619 L 113.529687 55.999619 L 113.529687 37.328201 L 118.011244 37.328201 L 129.751881 55.999619 L 141.106897 55.999619 Z M 122.049856 29.172809 L 113.529687 29.172809 L 113.529687 17.432171 L 122.049856 17.432171 C 123.759101 17.432171 125.207791 18.005393 126.349025 19.146627 C 127.469414 20.28265 128.042636 21.674017 128.042636 23.305095 C 128.042636 25.014341 127.469414 26.400497 126.349025 27.54173 C 125.207791 28.667331 123.759101 29.172809 122.049856 29.172809 Z M 122.049856 29.172809 " stroke="#000000" stroke-width="2.366959" stroke-opacity="1" stroke-miterlimit="4"/><g fill="#000000" fill-opacity="1"><g transform="translate(112.43999, 120.370805)"><g/></g></g><g fill="#000000" fill-opacity="1"><g transform="translate(46.348697, 216.931925)"><g><path d="M 6.9375 -5.78125 C 6.9375 -5.332031 6.828125 -4.910156 6.609375 -4.515625 C 6.398438 -4.128906 6.066406 -3.816406 5.609375 -3.578125 C 5.160156 -3.335938 4.59375 -3.21875 3.90625 -3.21875 L 2.515625 -3.21875 L 2.515625 0 L 0.828125 0 L 0.828125 -8.375 L 3.90625 -8.375 C 4.5625 -8.375 5.113281 -8.257812 5.5625 -8.03125 C 6.019531 -7.8125 6.363281 -7.503906 6.59375 -7.109375 C 6.820312 -6.722656 6.9375 -6.28125 6.9375 -5.78125 Z M 3.84375 -4.578125 C 4.300781 -4.578125 4.640625 -4.679688 4.859375 -4.890625 C 5.085938 -5.097656 5.203125 -5.394531 5.203125 -5.78125 C 5.203125 -6.601562 4.75 -7.015625 3.84375 -7.015625 L 2.515625 -7.015625 L 2.515625 -4.578125 Z M 3.84375 -4.578125 "/></g></g></g><g fill="#000000" fill-opacity="1"><g transform="translate(53.640826, 216.931925)"><g><path d="M 2.515625 -5.609375 C 2.722656 -5.960938 3 -6.238281 3.34375 -6.4375 C 3.695312 -6.644531 4.097656 -6.75 4.546875 -6.75 L 4.546875 -4.984375 L 4.109375 -4.984375 C 3.578125 -4.984375 3.175781 -4.859375 2.90625 -4.609375 C 2.644531 -4.359375 2.515625 -3.925781 2.515625 -3.3125 L 2.515625 0 L 0.828125 0 L 0.828125 -6.640625 L 2.515625 -6.640625 Z M 2.515625 -5.609375 "/></g></g></g><g fill="#000000" fill-opacity="1"><g transform="translate(58.486255, 216.931925)"><g><path d="M 0.390625 -3.34375 C 0.390625 -4.019531 0.523438 -4.617188 0.796875 -5.140625 C 1.066406 -5.660156 1.429688 -6.054688 1.890625 -6.328125 C 2.347656 -6.609375 2.863281 -6.75 3.4375 -6.75 C 3.925781 -6.75 4.359375 -6.648438 4.734375 -6.453125 C 5.109375 -6.253906 5.40625 -6.003906 5.625 -5.703125 L 5.625 -6.640625 L 7.3125 -6.640625 L 7.3125 0 L 5.625 0 L 5.625 -0.96875 C 5.40625 -0.65625 5.101562 -0.394531 4.71875 -0.1875 C 4.34375 0.0078125 3.910156 0.109375 3.421875 0.109375 C 2.859375 0.109375 2.347656 -0.03125 1.890625 -0.3125 C 1.429688 -0.601562 1.066406 -1.007812 0.796875 -1.53125 C 0.523438 -2.0625 0.390625 -2.664062 0.390625 -3.34375 Z M 5.625 -3.328125 C 5.625 -3.734375 5.539062 -4.082031 5.375 -4.375 C 5.21875 -4.664062 5.003906 -4.890625 4.734375 -5.046875 C 4.460938 -5.203125 4.171875 -5.28125 3.859375 -5.28125 C 3.546875 -5.28125 3.257812 -5.203125 3 -5.046875 C 2.738281 -4.898438 2.523438 -4.679688 2.359375 -4.390625 C 2.191406 -4.097656 2.109375 -3.75 2.109375 -3.34375 C 2.109375 -2.945312 2.191406 -2.597656 2.359375 -2.296875 C 2.523438 -1.992188 2.738281 -1.765625 3 -1.609375 C 3.269531 -1.453125 3.554688 -1.375 3.859375 -1.375 C 4.171875 -1.375 4.460938 -1.453125 4.734375 -1.609375 C 5.003906 -1.765625 5.21875 -1.988281 5.375 -2.28125 C 5.539062 -2.570312 5.625 -2.921875 5.625 -3.328125 Z M 5.625 -3.328125 "/></g></g></g><g fill="#000000" fill-opacity="1"><g transform="translate(66.617932, 216.931925)"><g><path d="M 4.765625 0 L 2.515625 -2.828125 L 2.515625 0 L 0.828125 0 L 0.828125 -8.875 L 2.515625 -8.875 L 2.515625 -3.828125 L 4.734375 -6.640625 L 6.921875 -6.640625 L 4 -3.3125 L 6.953125 0 Z M 4.765625 0 "/></g></g></g><g fill="#000000" fill-opacity="1"><g transform="translate(73.622212, 216.931925)"><g><path d="M 4.578125 -6.75 C 5.078125 -6.75 5.519531 -6.632812 5.90625 -6.40625 C 6.300781 -6.1875 6.609375 -5.863281 6.828125 -5.4375 C 7.046875 -5.007812 7.15625 -4.5 7.15625 -3.90625 L 7.15625 0 L 5.484375 0 L 5.484375 -3.671875 C 5.484375 -4.203125 5.347656 -4.609375 5.078125 -4.890625 C 4.816406 -5.171875 4.460938 -5.3125 4.015625 -5.3125 C 3.546875 -5.3125 3.175781 -5.171875 2.90625 -4.890625 C 2.644531 -4.609375 2.515625 -4.203125 2.515625 -3.671875 L 2.515625 0 L 0.828125 0 L 0.828125 -8.875 L 2.515625 -8.875 L 2.515625 -5.8125 C 2.722656 -6.101562 3.003906 -6.332031 3.359375 -6.5 C 3.722656 -6.664062 4.128906 -6.75 4.578125 -6.75 Z M 4.578125 -6.75 "/></g></g></g><g fill="#000000" fill-opacity="1"><g transform="translate(81.549995, 216.931925)"><g><path d="M 0.390625 -3.34375 C 0.390625 -4.019531 0.523438 -4.617188 0.796875 -5.140625 C 1.066406 -5.660156 1.429688 -6.054688 1.890625 -6.328125 C 2.347656 -6.609375 2.863281 -6.75 3.4375 -6.75 C 3.925781 -6.75 4.359375 -6.648438 4.734375 -6.453125 C 5.109375 -6.253906 5.40625 -6.003906 5.625 -5.703125 L 5.625 -6.640625 L 7.3125 -6.640625 L 7.3125 0 L 5.625 0 L 5.625 -0.96875 C 5.40625 -0.65625 5.101562 -0.394531 4.71875 -0.1875 C 4.34375 0.0078125 3.910156 0.109375 3.421875 0.109375 C 2.859375 0.109375 2.347656 -0.03125 1.890625 -0.3125 C 1.429688 -0.601562 1.066406 -1.007812 0.796875 -1.53125 C 0.523438 -2.0625 0.390625 -2.664062 0.390625 -3.34375 Z M 5.625 -3.328125 C 5.625 -3.734375 5.539062 -4.082031 5.375 -4.375 C 5.21875 -4.664062 5.003906 -4.890625 4.734375 -5.046875 C 4.460938 -5.203125 4.171875 -5.28125 3.859375 -5.28125 C 3.546875 -5.28125 3.257812 -5.203125 3 -5.046875 C 2.738281 -4.898438 2.523438 -4.679688 2.359375 -4.390625 C 2.191406 -4.097656 2.109375 -3.75 2.109375 -3.34375 C 2.109375 -2.945312 2.191406 -2.597656 2.359375 -2.296875 C 2.523438 -1.992188 2.738281 -1.765625 3 -1.609375 C 3.269531 -1.453125 3.554688 -1.375 3.859375 -1.375 C 4.171875 -1.375 4.460938 -1.453125 4.734375 -1.609375 C 5.003906 -1.765625 5.21875 -1.988281 5.375 -2.28125 C 5.539062 -2.570312 5.625 -2.921875 5.625 -3.328125 Z M 5.625 -3.328125 "/></g></g></g><g fill="#000000" fill-opacity="1"><g transform="translate(89.681672, 216.931925)"><g><path d="M 2.515625 -5.609375 C 2.722656 -5.960938 3 -6.238281 3.34375 -6.4375 C 3.695312 -6.644531 4.097656 -6.75 4.546875 -6.75 L 4.546875 -4.984375 L 4.109375 -4.984375 C 3.578125 -4.984375 3.175781 -4.859375 2.90625 -4.609375 C 2.644531 -4.359375 2.515625 -3.925781 2.515625 -3.3125 L 2.515625 0 L 0.828125 0 L 0.828125 -6.640625 L 2.515625 -6.640625 Z M 2.515625 -5.609375 "/></g></g></g><g fill="#000000" fill-opacity="1"><g transform="translate(94.527101, 216.931925)"><g/></g></g><g fill="#000000" fill-opacity="1"><g transform="translate(97.381588, 216.931925)"><g><path d="M 3.71875 0.078125 C 3.132812 0.078125 2.609375 -0.0195312 2.140625 -0.21875 C 1.671875 -0.414062 1.300781 -0.703125 1.03125 -1.078125 C 0.757812 -1.453125 0.617188 -1.894531 0.609375 -2.40625 L 2.40625 -2.40625 C 2.4375 -2.0625 2.5625 -1.789062 2.78125 -1.59375 C 3 -1.394531 3.300781 -1.296875 3.6875 -1.296875 C 4.070312 -1.296875 4.375 -1.390625 4.59375 -1.578125 C 4.820312 -1.765625 4.9375 -2.007812 4.9375 -2.3125 C 4.9375 -2.5625 4.859375 -2.765625 4.703125 -2.921875 C 4.554688 -3.085938 4.367188 -3.210938 4.140625 -3.296875 C 3.910156 -3.390625 3.597656 -3.492188 3.203125 -3.609375 C 2.660156 -3.773438 2.21875 -3.929688 1.875 -4.078125 C 1.539062 -4.234375 1.25 -4.46875 1 -4.78125 C 0.757812 -5.101562 0.640625 -5.53125 0.640625 -6.0625 C 0.640625 -6.550781 0.757812 -6.976562 1 -7.34375 C 1.25 -7.71875 1.597656 -8.003906 2.046875 -8.203125 C 2.492188 -8.398438 3.007812 -8.5 3.59375 -8.5 C 4.457031 -8.5 5.15625 -8.285156 5.6875 -7.859375 C 6.226562 -7.441406 6.53125 -6.859375 6.59375 -6.109375 L 4.734375 -6.109375 C 4.722656 -6.398438 4.601562 -6.640625 4.375 -6.828125 C 4.144531 -7.015625 3.84375 -7.109375 3.46875 -7.109375 C 3.132812 -7.109375 2.867188 -7.019531 2.671875 -6.84375 C 2.484375 -6.675781 2.390625 -6.4375 2.390625 -6.125 C 2.390625 -5.894531 2.460938 -5.707031 2.609375 -5.5625 C 2.753906 -5.414062 2.9375 -5.296875 3.15625 -5.203125 C 3.375 -5.109375 3.6875 -5.003906 4.09375 -4.890625 C 4.632812 -4.722656 5.078125 -4.554688 5.421875 -4.390625 C 5.765625 -4.234375 6.0625 -3.992188 6.3125 -3.671875 C 6.5625 -3.359375 6.6875 -2.941406 6.6875 -2.421875 C 6.6875 -1.972656 6.566406 -1.554688 6.328125 -1.171875 C 6.097656 -0.785156 5.757812 -0.476562 5.3125 -0.25 C 4.863281 -0.03125 4.332031 0.078125 3.71875 0.078125 Z M 3.71875 0.078125 "/></g></g></g><g fill="#000000" fill-opacity="1"><g transform="translate(104.685704, 216.931925)"><g><path d="M 4.578125 -6.75 C 5.078125 -6.75 5.519531 -6.632812 5.90625 -6.40625 C 6.300781 -6.1875 6.609375 -5.863281 6.828125 -5.4375 C 7.046875 -5.007812 7.15625 -4.5 7.15625 -3.90625 L 7.15625 0 L 5.484375 0 L 5.484375 -3.671875 C 5.484375 -4.203125 5.347656 -4.609375 5.078125 -4.890625 C 4.816406 -5.171875 4.460938 -5.3125 4.015625 -5.3125 C 3.546875 -5.3125 3.175781 -5.171875 2.90625 -4.890625 C 2.644531 -4.609375 2.515625 -4.203125 2.515625 -3.671875 L 2.515625 0 L 0.828125 0 L 0.828125 -8.875 L 2.515625 -8.875 L 2.515625 -5.8125 C 2.722656 -6.101562 3.003906 -6.332031 3.359375 -6.5 C 3.722656 -6.664062 4.128906 -6.75 4.578125 -6.75 Z M 4.578125 -6.75 "/></g></g></g><g fill="#000000" fill-opacity="1"><g transform="translate(112.613487, 216.931925)"><g><path d="M 0.390625 -3.34375 C 0.390625 -4.019531 0.523438 -4.617188 0.796875 -5.140625 C 1.066406 -5.660156 1.429688 -6.054688 1.890625 -6.328125 C 2.347656 -6.609375 2.863281 -6.75 3.4375 -6.75 C 3.925781 -6.75 4.359375 -6.648438 4.734375 -6.453125 C 5.109375 -6.253906 5.40625 -6.003906 5.625 -5.703125 L 5.625 -6.640625 L 7.3125 -6.640625 L 7.3125 0 L 5.625 0 L 5.625 -0.96875 C 5.40625 -0.65625 5.101562 -0.394531 4.71875 -0.1875 C 4.34375 0.0078125 3.910156 0.109375 3.421875 0.109375 C 2.859375 0.109375 2.347656 -0.03125 1.890625 -0.3125 C 1.429688 -0.601562 1.066406 -1.007812 0.796875 -1.53125 C 0.523438 -2.0625 0.390625 -2.664062 0.390625 -3.34375 Z M 5.625 -3.328125 C 5.625 -3.734375 5.539062 -4.082031 5.375 -4.375 C 5.21875 -4.664062 5.003906 -4.890625 4.734375 -5.046875 C 4.460938 -5.203125 4.171875 -5.28125 3.859375 -5.28125 C 3.546875 -5.28125 3.257812 -5.203125 3 -5.046875 C 2.738281 -4.898438 2.523438 -4.679688 2.359375 -4.390625 C 2.191406 -4.097656 2.109375 -3.75 2.109375 -3.34375 C 2.109375 -2.945312 2.191406 -2.597656 2.359375 -2.296875 C 2.523438 -1.992188 2.738281 -1.765625 3 -1.609375 C 3.269531 -1.453125 3.554688 -1.375 3.859375 -1.375 C 4.171875 -1.375 4.460938 -1.453125 4.734375 -1.609375 C 5.003906 -1.765625 5.21875 -1.988281 5.375 -2.28125 C 5.539062 -2.570312 5.625 -2.921875 5.625 -3.328125 Z M 5.625 -3.328125 "/></g></g></g><g fill="#000000" fill-opacity="1"><g transform="translate(120.745164, 216.931925)"><g><path d="M 2.515625 -5.609375 C 2.722656 -5.960938 3 -6.238281 3.34375 -6.4375 C 3.695312 -6.644531 4.097656 -6.75 4.546875 -6.75 L 4.546875 -4.984375 L 4.109375 -4.984375 C 3.578125 -4.984375 3.175781 -4.859375 2.90625 -4.609375 C 2.644531 -4.359375 2.515625 -3.925781 2.515625 -3.3125 L 2.515625 0 L 0.828125 0 L 0.828125 -6.640625 L 2.515625 -6.640625 Z M 2.515625 -5.609375 "/></g></g></g><g fill="#000000" fill-opacity="1"><g transform="translate(125.590593, 216.931925)"><g><path d="M 9.078125 -6.75 C 9.898438 -6.75 10.5625 -6.5 11.0625 -6 C 11.5625 -5.5 11.8125 -4.800781 11.8125 -3.90625 L 11.8125 0 L 10.125 0 L 10.125 -3.671875 C 10.125 -4.191406 9.992188 -4.585938 9.734375 -4.859375 C 9.472656 -5.140625 9.113281 -5.28125 8.65625 -5.28125 C 8.195312 -5.28125 7.832031 -5.140625 7.5625 -4.859375 C 7.289062 -4.585938 7.15625 -4.191406 7.15625 -3.671875 L 7.15625 0 L 5.484375 0 L 5.484375 -3.671875 C 5.484375 -4.191406 5.347656 -4.585938 5.078125 -4.859375 C 4.816406 -5.140625 4.460938 -5.28125 4.015625 -5.28125 C 3.546875 -5.28125 3.175781 -5.140625 2.90625 -4.859375 C 2.644531 -4.585938 2.515625 -4.191406 2.515625 -3.671875 L 2.515625 0 L 0.828125 0 L 0.828125 -6.640625 L 2.515625 -6.640625 L 2.515625 -5.84375 C 2.722656 -6.125 3 -6.34375 3.34375 -6.5 C 3.6875 -6.664062 4.0625 -6.75 4.46875 -6.75 C 4.988281 -6.75 5.453125 -6.632812 5.859375 -6.40625 C 6.265625 -6.1875 6.578125 -5.875 6.796875 -5.46875 C 7.015625 -5.851562 7.328125 -6.160156 7.734375 -6.390625 C 8.148438 -6.628906 8.597656 -6.75 9.078125 -6.75 Z M 9.078125 -6.75 "/></g></g></g><g fill="#000000" fill-opacity="1"><g transform="translate(138.159912, 216.931925)"><g><path d="M 0.390625 -3.34375 C 0.390625 -4.019531 0.523438 -4.617188 0.796875 -5.140625 C 1.066406 -5.660156 1.429688 -6.054688 1.890625 -6.328125 C 2.347656 -6.609375 2.863281 -6.75 3.4375 -6.75 C 3.925781 -6.75 4.359375 -6.648438 4.734375 -6.453125 C 5.109375 -6.253906 5.40625 -6.003906 5.625 -5.703125 L 5.625 -6.640625 L 7.3125 -6.640625 L 7.3125 0 L 5.625 0 L 5.625 -0.96875 C 5.40625 -0.65625 5.101562 -0.394531 4.71875 -0.1875 C 4.34375 0.0078125 3.910156 0.109375 3.421875 0.109375 C 2.859375 0.109375 2.347656 -0.03125 1.890625 -0.3125 C 1.429688 -0.601562 1.066406 -1.007812 0.796875 -1.53125 C 0.523438 -2.0625 0.390625 -2.664062 0.390625 -3.34375 Z M 5.625 -3.328125 C 5.625 -3.734375 5.539062 -4.082031 5.375 -4.375 C 5.21875 -4.664062 5.003906 -4.890625 4.734375 -5.046875 C 4.460938 -5.203125 4.171875 -5.28125 3.859375 -5.28125 C 3.546875 -5.28125 3.257812 -5.203125 3 -5.046875 C 2.738281 -4.898438 2.523438 -4.679688 2.359375 -4.390625 C 2.191406 -4.097656 2.109375 -3.75 2.109375 -3.34375 C 2.109375 -2.945312 2.191406 -2.597656 2.359375 -2.296875 C 2.523438 -1.992188 2.738281 -1.765625 3 -1.609375 C 3.269531 -1.453125 3.554688 -1.375 3.859375 -1.375 C 4.171875 -1.375 4.460938 -1.453125 4.734375 -1.609375 C 5.003906 -1.765625 5.21875 -1.988281 5.375 -2.28125 C 5.539062 -2.570312 5.625 -2.921875 5.625 -3.328125 Z M 5.625 -3.328125 "/></g></g></g><g fill="#000000" fill-opacity="1"><g transform="translate(146.291588, 216.931925)"><g/></g></g><g fill="#000000" fill-opacity="1"><g transform="translate(149.146075, 216.931925)"><g><path d="M 7.984375 0 L 6.3125 0 L 2.515625 -5.75 L 2.515625 0 L 0.828125 0 L 0.828125 -8.390625 L 2.515625 -8.390625 L 6.3125 -2.625 L 6.3125 -8.390625 L 7.984375 -8.390625 Z M 7.984375 0 "/></g></g></g><g fill="#000000" fill-opacity="1"><g transform="translate(157.961389, 216.931925)"><g><path d="M 6 -8.375 L 6 -7.015625 L 2.515625 -7.015625 L 2.515625 -4.875 L 5.1875 -4.875 L 5.1875 -3.546875 L 2.515625 -3.546875 L 2.515625 0 L 0.828125 0 L 0.828125 -8.375 Z M 6 -8.375 "/></g></g></g><g fill="#000000" fill-opacity="1"><g transform="translate(164.318005, 216.931925)"><g><path d="M 6.53125 -8.375 L 6.53125 -7.015625 L 4.296875 -7.015625 L 4.296875 0 L 2.609375 0 L 2.609375 -7.015625 L 0.390625 -7.015625 L 0.390625 -8.375 Z M 6.53125 -8.375 "/></g></g></g><g fill="#000000" fill-opacity="1"><g transform="translate(171.238331, 216.931925)"><g><path d="M 3.375 0.109375 C 2.832031 0.109375 2.34375 0.0078125 1.90625 -0.1875 C 1.476562 -0.382812 1.132812 -0.648438 0.875 -0.984375 C 0.625 -1.316406 0.488281 -1.6875 0.46875 -2.09375 L 2.15625 -2.09375 C 2.1875 -1.84375 2.3125 -1.632812 2.53125 -1.46875 C 2.757812 -1.300781 3.035156 -1.21875 3.359375 -1.21875 C 3.679688 -1.21875 3.929688 -1.28125 4.109375 -1.40625 C 4.285156 -1.53125 4.375 -1.691406 4.375 -1.890625 C 4.375 -2.109375 4.265625 -2.269531 4.046875 -2.375 C 3.828125 -2.488281 3.476562 -2.609375 3 -2.734375 C 2.5 -2.859375 2.09375 -2.984375 1.78125 -3.109375 C 1.46875 -3.234375 1.195312 -3.425781 0.96875 -3.6875 C 0.738281 -3.957031 0.625 -4.316406 0.625 -4.765625 C 0.625 -5.128906 0.726562 -5.460938 0.9375 -5.765625 C 1.15625 -6.078125 1.460938 -6.316406 1.859375 -6.484375 C 2.253906 -6.660156 2.71875 -6.75 3.25 -6.75 C 4.039062 -6.75 4.671875 -6.550781 5.140625 -6.15625 C 5.617188 -5.757812 5.878906 -5.226562 5.921875 -4.5625 L 4.3125 -4.5625 C 4.289062 -4.820312 4.179688 -5.03125 3.984375 -5.1875 C 3.796875 -5.34375 3.535156 -5.421875 3.203125 -5.421875 C 2.898438 -5.421875 2.664062 -5.363281 2.5 -5.25 C 2.332031 -5.144531 2.25 -4.988281 2.25 -4.78125 C 2.25 -4.5625 2.359375 -4.394531 2.578125 -4.28125 C 2.804688 -4.164062 3.160156 -4.046875 3.640625 -3.921875 C 4.117188 -3.804688 4.515625 -3.679688 4.828125 -3.546875 C 5.140625 -3.421875 5.40625 -3.222656 5.625 -2.953125 C 5.851562 -2.691406 5.972656 -2.335938 5.984375 -1.890625 C 5.984375 -1.503906 5.878906 -1.160156 5.671875 -0.859375 C 5.460938 -0.554688 5.15625 -0.316406 4.75 -0.140625 C 4.351562 0.0234375 3.894531 0.109375 3.375 0.109375 Z M 3.375 0.109375 "/></g></g></g></svg>