<svg xmlns="http://www.w3.org/2000/svg" xmlns:xlink="http://www.w3.org/1999/xlink" width="300" zoomAndPan="magnify" viewBox="0 0 224.87999 225" height="300" preserveAspectRatio="xMidYMid meet" version="1.0"><defs><g/><clipPath id="id1"><path d="M 0 0.0585938 L 224.761719 0.0585938 L 224.761719 224.9375 L 0 224.9375 Z M 0 0.0585938 " clip-rule="nonzero"/></clipPath><clipPath id="id2"><path d="M 0 202.453125 L 224.761719 202.453125 L 224.761719 224.9375 L 0 224.9375 Z M 0 202.453125 " clip-rule="nonzero"/></clipPath><clipPath id="id3"><path d="M 55.09375 46.910156 L 169.691406 46.910156 L 169.691406 161.507812 L 55.09375 161.507812 Z M 55.09375 46.910156 " clip-rule="nonzero"/></clipPath></defs><g clip-path="url(#id1)"><path fill="#7ed957" d="M 0 0.0585938 L 224.878906 0.0585938 L 224.878906 224.941406 L 0 224.941406 Z M 0 0.0585938 " fill-opacity="1" fill-rule="nonzero"/><path fill="#ffffff" d="M 0 0.0585938 L 224.878906 0.0585938 L 224.878906 224.941406 L 0 224.941406 Z M 0 0.0585938 " fill-opacity="1" fill-rule="nonzero"/><path fill="#7ed957" d="M 0 0.0585938 L 224.878906 0.0585938 L 224.878906 224.941406 L 0 224.941406 Z M 0 0.0585938 " fill-opacity="1" fill-rule="nonzero"/></g><g clip-path="url(#id2)"><path fill="#003c25" d="M 0.03125 202.453125 L 224.847656 202.453125 L 224.847656 225.691406 L 0.03125 225.691406 L 0.03125 202.453125 " fill-opacity="1" fill-rule="nonzero"/></g><g clip-path="url(#id3)"><path fill="#008037" d="M 112.394531 161.507812 C 97.097656 161.507812 82.691406 155.554688 71.882812 144.722656 C 61.050781 133.910156 55.09375 119.507812 55.09375 104.207031 C 55.09375 88.910156 61.050781 74.507812 71.882812 63.695312 C 82.691406 52.863281 97.097656 46.910156 112.394531 46.910156 C 127.691406 46.910156 142.097656 52.863281 152.90625 63.695312 C 163.738281 74.527344 169.691406 88.910156 169.691406 104.207031 C 169.691406 119.507812 163.738281 133.910156 152.90625 144.722656 C 142.097656 155.554688 127.691406 161.507812 112.394531 161.507812 Z M 112.394531 50.34375 C 98.011719 50.34375 84.476562 55.957031 74.308594 66.125 C 64.140625 76.292969 58.53125 89.828125 58.53125 104.207031 C 58.53125 118.589844 64.140625 132.125 74.308594 142.292969 C 84.476562 152.460938 98.011719 158.070312 112.394531 158.070312 C 126.777344 158.070312 140.3125 152.460938 150.480469 142.292969 C 160.648438 132.125 166.257812 118.589844 166.257812 104.207031 C 166.257812 89.828125 160.648438 76.292969 150.480469 66.125 C 140.3125 55.957031 126.777344 50.34375 112.394531 50.34375 Z M 112.394531 50.34375 " fill-opacity="1" fill-rule="nonzero"/></g><g fill="#9f3f73" fill-opacity="1"><g transform="translate(35.888314, 126.840365)"><g><path d="M 14.238281 0.472656 C 17.597656 0.472656 20.4375 -0.472656 22.753906 -2.367188 C 25.074219 -4.257812 26.253906 -6.765625 26.253906 -9.933594 C 26.253906 -11.683594 25.925781 -13.246094 25.355469 -14.570312 C 24.742188 -15.894531 23.9375 -16.9375 22.992188 -17.691406 C 21.996094 -18.449219 20.910156 -19.160156 19.773438 -19.726562 C 18.589844 -20.292969 17.410156 -20.769531 16.273438 -21.144531 C 15.089844 -21.523438 14.003906 -21.949219 13.058594 -22.375 C 12.0625 -22.753906 11.257812 -23.273438 10.691406 -23.9375 C 10.078125 -24.550781 9.792969 -25.308594 9.792969 -26.160156 C 9.792969 -27.25 10.125 -28.101562 10.878906 -28.667969 C 11.589844 -29.234375 12.535156 -29.519531 13.671875 -29.519531 C 15.753906 -29.519531 17.738281 -28.480469 19.539062 -26.445312 L 24.410156 -30.984375 C 23.085938 -32.5 21.523438 -33.683594 19.632812 -34.582031 C 17.738281 -35.480469 15.753906 -35.953125 13.671875 -35.953125 C 10.644531 -35.953125 8.042969 -35.054688 5.867188 -33.257812 C 3.691406 -31.460938 2.601562 -28.90625 2.601562 -25.6875 C 2.601562 -23.464844 3.167969 -21.621094 4.304688 -20.152344 C 5.441406 -18.640625 6.8125 -17.550781 8.421875 -16.839844 C 10.027344 -16.132812 11.683594 -15.515625 13.292969 -14.949219 C 14.902344 -14.382812 16.273438 -13.71875 17.410156 -12.960938 C 18.542969 -12.15625 19.113281 -11.164062 19.113281 -9.980469 C 19.113281 -8.847656 18.640625 -7.949219 17.789062 -7.285156 C 16.9375 -6.621094 15.753906 -6.339844 14.285156 -6.339844 C 12.632812 -6.339844 11.164062 -6.765625 9.933594 -7.617188 C 8.65625 -8.46875 7.710938 -9.601562 7.097656 -11.070312 L 1.089844 -7.332031 C 2.222656 -5.015625 3.925781 -3.121094 6.292969 -1.703125 C 8.65625 -0.238281 11.304688 0.472656 14.238281 0.472656 Z M 14.238281 0.472656 "/></g></g></g><g fill="#9f3f73" fill-opacity="1"><g transform="translate(63.515491, 126.840365)"><g><path d="M 18.402344 -35.480469 L 3.59375 -35.480469 L 3.59375 0 L 10.976562 0 L 10.976562 -14.523438 L 18.402344 -14.523438 C 21.335938 -14.523438 23.84375 -15.515625 25.878906 -17.503906 C 27.910156 -19.492188 28.953125 -21.949219 28.953125 -24.882812 C 28.953125 -27.816406 27.910156 -30.277344 25.878906 -32.359375 C 23.796875 -34.441406 21.335938 -35.480469 18.402344 -35.480469 Z M 17.265625 -20.671875 L 10.976562 -20.671875 L 10.976562 -28.953125 L 17.265625 -28.953125 C 18.589844 -28.953125 19.679688 -28.527344 20.53125 -27.769531 C 21.382812 -27.011719 21.855469 -26.019531 21.855469 -24.789062 C 21.855469 -23.558594 21.382812 -22.566406 20.53125 -21.808594 C 19.679688 -21.050781 18.589844 -20.671875 17.265625 -20.671875 Z M 17.265625 -20.671875 "/></g></g></g><g fill="#9f3f73" fill-opacity="1"><g transform="translate(92.751089, 126.840365)"><g><path d="M 28.433594 0 L 36.425781 0 L 22.1875 -35.480469 L 13.910156 -35.480469 L -0.332031 0 L 7.664062 0 L 10.21875 -6.859375 L 25.878906 -6.859375 Z M 12.535156 -13.058594 L 18.070312 -27.910156 L 23.605469 -13.058594 Z M 12.535156 -13.058594 "/></g></g></g><g fill="#9f3f73" fill-opacity="1"><g transform="translate(128.846175, 126.840365)"><g><path d="M 20.71875 0.472656 C 23.464844 0.472656 26.066406 -0.09375 28.527344 -1.324219 C 30.984375 -2.507812 33.066406 -4.164062 34.769531 -6.246094 L 29.140625 -10.644531 C 27.011719 -8.042969 24.222656 -6.765625 20.71875 -6.765625 C 17.597656 -6.765625 14.996094 -7.804688 12.914062 -9.886719 C 10.785156 -11.96875 9.746094 -14.617188 9.746094 -17.738281 C 9.746094 -20.863281 10.785156 -23.464844 12.914062 -25.546875 C 14.996094 -27.628906 17.597656 -28.714844 20.71875 -28.714844 C 24.222656 -28.714844 27.058594 -27.390625 29.140625 -24.835938 L 34.769531 -29.234375 C 33.113281 -31.316406 31.035156 -32.925781 28.574219 -34.15625 C 26.113281 -35.339844 23.464844 -35.953125 20.71875 -35.953125 C 15.660156 -35.953125 11.355469 -34.15625 7.804688 -30.609375 C 4.257812 -27.058594 2.507812 -22.753906 2.507812 -17.738281 C 2.507812 -12.679688 4.257812 -8.375 7.804688 -4.824219 C 11.355469 -1.277344 15.660156 0.472656 20.71875 0.472656 Z M 20.71875 0.472656 "/></g></g></g><g fill="#9f3f73" fill-opacity="1"><g transform="translate(164.846645, 126.840365)"><g><path d="M 25.6875 -28.953125 L 25.6875 -35.480469 L 3.878906 -35.480469 L 3.878906 0 L 25.6875 0 L 25.6875 -6.527344 L 11.257812 -6.527344 L 11.257812 -14.476562 L 23.699219 -14.476562 L 23.699219 -21.003906 L 11.257812 -21.003906 L 11.257812 -28.953125 Z M 25.6875 -28.953125 "/></g></g></g><path stroke-linecap="butt" transform="matrix(0.7496, 0, 0, 0.7496, 22.487998, 83.022689)" fill="none" stroke-linejoin="miter" d="M 34.419779 56.630163 C 38.901337 56.630163 42.679394 55.369074 45.774795 52.841684 C 48.870196 50.314294 50.443952 46.96876 50.443952 42.747758 C 50.443952 40.407968 50.01143 38.328734 49.240185 36.556956 C 48.427251 34.800811 47.364184 33.414655 46.097884 32.393277 C 44.774261 31.392743 43.309938 30.439109 41.798715 29.683498 C 40.23017 28.927886 38.640781 28.297342 37.129558 27.786653 C 35.561013 27.281175 34.09669 26.707952 32.83039 26.155574 C 31.506767 25.644885 30.4437 24.951807 29.688089 24.060707 C 28.859522 23.242562 28.489533 22.242028 28.489533 21.100795 C 28.489533 19.652105 28.932477 18.510871 29.938222 17.760471 C 30.891856 17.00486 32.137312 16.619237 33.664168 16.619237 C 36.43648 16.619237 39.088937 18.005393 41.49126 20.715172 L 47.994729 14.659859 C 46.22295 12.643158 44.143716 11.069402 41.616327 9.870846 C 39.088937 8.667079 36.43648 8.036534 33.664168 8.036534 C 29.625555 8.036534 26.144532 9.23509 23.247153 11.642624 C 20.339352 14.029314 18.890663 17.432171 18.890663 21.731339 C 18.890663 24.691251 19.641063 27.156108 21.167919 29.115486 C 22.679142 31.132187 24.513454 32.580877 26.655221 33.53451 C 28.796988 34.477722 31.016923 35.306289 33.15869 36.0619 C 35.295246 36.817512 37.129558 37.69819 38.640781 38.714357 C 40.167637 39.777424 40.923249 41.101046 40.923249 42.685225 C 40.923249 44.196448 40.287493 45.400215 39.15147 46.275682 C 38.010236 47.171993 36.43648 47.541982 34.482313 47.541982 C 32.278012 47.541982 30.318633 46.96876 28.671922 45.84837 C 26.97831 44.707137 25.71201 43.195914 24.883443 41.241747 L 16.868751 46.218359 C 18.395607 49.313761 20.662441 51.84115 23.820376 53.732784 C 26.97831 55.692163 30.506234 56.630163 34.419779 56.630163 Z M 76.822606 8.667079 L 57.067277 8.667079 L 57.067277 55.999619 L 66.91628 55.999619 L 66.91628 36.629911 L 76.822606 36.629911 C 80.736152 36.629911 84.081687 35.306289 86.807099 32.64341 C 89.516878 29.990953 90.903034 26.707952 90.903034 22.81004 C 90.903034 18.896494 89.516878 15.618704 86.807099 12.825547 C 84.019153 10.053235 80.736152 8.667079 76.822606 8.667079 Z M 75.311383 28.422408 L 66.91628 28.422408 L 66.91628 17.374849 L 75.311383 17.374849 C 77.083162 17.374849 78.531851 17.94286 79.673085 18.959027 C 80.798686 19.959561 81.42923 21.288395 81.42923 22.935106 C 81.42923 24.566185 80.798686 25.895019 79.673085 26.911186 C 78.531851 27.911719 77.083162 28.422408 75.311383 28.422408 Z M 129.215137 55.999619 L 139.877074 55.999619 L 120.877356 8.667079 L 109.829796 8.667079 L 90.830078 55.999619 L 101.507649 55.999619 L 104.915717 46.848904 L 125.807069 46.848904 Z M 107.995484 38.58929 L 115.390054 18.761005 L 122.774201 38.58929 Z M 167.073873 56.630163 C 170.742497 56.630163 174.207887 55.874552 177.490888 54.22784 C 180.768678 52.654084 183.546201 50.454994 185.823458 47.661838 L 178.303822 41.794124 C 175.468976 45.275148 171.74303 46.96876 167.073873 46.96876 C 162.915405 46.96876 159.42917 45.582604 156.656858 42.810292 C 153.822013 40.037979 152.435856 36.494423 152.435856 32.335954 C 152.435856 28.172275 153.822013 24.691251 156.656858 21.918939 C 159.42917 19.146627 162.915405 17.697938 167.073873 17.697938 C 171.74303 17.697938 175.531509 19.454083 178.303822 22.872573 L 185.823458 17.00486 C 183.603524 14.211703 180.831211 12.075147 177.54821 10.438857 C 174.27042 8.854679 170.742497 8.036534 167.073873 8.036534 C 160.325482 8.036534 154.577624 10.438857 149.845933 15.170548 C 145.119454 19.902239 142.774453 25.644885 142.774453 32.335954 C 142.774453 39.084346 145.119454 44.826992 149.845933 49.558683 C 154.577624 54.290374 160.325482 56.630163 167.073873 56.630163 Z M 221.722816 17.374849 L 221.722816 8.667079 L 192.634383 8.667079 L 192.634383 55.999619 L 221.722816 55.999619 L 221.722816 47.29706 L 202.478175 47.29706 L 202.478175 36.692445 L 219.07557 36.692445 L 219.07557 27.974253 L 202.478175 27.974253 L 202.478175 17.374849 Z M 221.722816 17.374849 " stroke="#000000" stroke-width="2.366959" stroke-opacity="1" stroke-miterlimit="4"/><g fill="#000000" fill-opacity="1"><g transform="translate(112.43999, 120.370922)"><g/></g></g><g fill="#000000" fill-opacity="1"><g transform="translate(46.348697, 216.932042)"><g><path d="M 6.9375 -5.78125 C 6.9375 -5.332031 6.828125 -4.910156 6.609375 -4.515625 C 6.398438 -4.128906 6.066406 -3.816406 5.609375 -3.578125 C 5.160156 -3.335938 4.59375 -3.21875 3.90625 -3.21875 L 2.515625 -3.21875 L 2.515625 0 L 0.828125 0 L 0.828125 -8.375 L 3.90625 -8.375 C 4.5625 -8.375 5.113281 -8.257812 5.5625 -8.03125 C 6.019531 -7.8125 6.363281 -7.503906 6.59375 -7.109375 C 6.820312 -6.722656 6.9375 -6.28125 6.9375 -5.78125 Z M 3.84375 -4.578125 C 4.300781 -4.578125 4.640625 -4.679688 4.859375 -4.890625 C 5.085938 -5.097656 5.203125 -5.394531 5.203125 -5.78125 C 5.203125 -6.601562 4.75 -7.015625 3.84375 -7.015625 L 2.515625 -7.015625 L 2.515625 -4.578125 Z M 3.84375 -4.578125 "/></g></g></g><g fill="#000000" fill-opacity="1"><g transform="translate(53.640826, 216.932042)"><g><path d="M 2.515625 -5.609375 C 2.722656 -5.960938 3 -6.238281 3.34375 -6.4375 C 3.695312 -6.644531 4.097656 -6.75 4.546875 -6.75 L 4.546875 -4.984375 L 4.109375 -4.984375 C 3.578125 -4.984375 3.175781 -4.859375 2.90625 -4.609375 C 2.644531 -4.359375 2.515625 -3.925781 2.515625 -3.3125 L 2.515625 0 L 0.828125 0 L 0.828125 -6.640625 L 2.515625 -6.640625 Z M 2.515625 -5.609375 "/></g></g></g><g fill="#000000" fill-opacity="1"><g transform="translate(58.486255, 216.932042)"><g><path d="M 0.390625 -3.34375 C 0.390625 -4.019531 0.523438 -4.617188 0.796875 -5.140625 C 1.066406 -5.660156 1.429688 -6.054688 1.890625 -6.328125 C 2.347656 -6.609375 2.863281 -6.75 3.4375 -6.75 C 3.925781 -6.75 4.359375 -6.648438 4.734375 -6.453125 C 5.109375 -6.253906 5.40625 -6.003906 5.625 -5.703125 L 5.625 -6.640625 L 7.3125 -6.640625 L 7.3125 0 L 5.625 0 L 5.625 -0.96875 C 5.40625 -0.65625 5.101562 -0.394531 4.71875 -0.1875 C 4.34375 0.0078125 3.910156 0.109375 3.421875 0.109375 C 2.859375 0.109375 2.347656 -0.03125 1.890625 -0.3125 C 1.429688 -0.601562 1.066406 -1.007812 0.796875 -1.53125 C 0.523438 -2.0625 0.390625 -2.664062 0.390625 -3.34375 Z M 5.625 -3.328125 C 5.625 -3.734375 5.539062 -4.082031 5.375 -4.375 C 5.21875 -4.664062 5.003906 -4.890625 4.734375 -5.046875 C 4.460938 -5.203125 4.171875 -5.28125 3.859375 -5.28125 C 3.546875 -5.28125 3.257812 -5.203125 3 -5.046875 C 2.738281 -4.898438 2.523438 -4.679688 2.359375 -4.390625 C 2.191406 -4.097656 2.109375 -3.75 2.109375 -3.34375 C 2.109375 -2.945312 2.191406 -2.597656 2.359375 -2.296875 C 2.523438 -1.992188 2.738281 -1.765625 3 -1.609375 C 3.269531 -1.453125 3.554688 -1.375 3.859375 -1.375 C 4.171875 -1.375 4.460938 -1.453125 4.734375 -1.609375 C 5.003906 -1.765625 5.21875 -1.988281 5.375 -2.28125 C 5.539062 -2.570312 5.625 -2.921875 5.625 -3.328125 Z M 5.625 -3.328125 "/></g></g></g><g fill="#000000" fill-opacity="1"><g transform="translate(66.617932, 216.932042)"><g><path d="M 4.765625 0 L 2.515625 -2.828125 L 2.515625 0 L 0.828125 0 L 0.828125 -8.875 L 2.515625 -8.875 L 2.515625 -3.828125 L 4.734375 -6.640625 L 6.921875 -6.640625 L 4 -3.3125 L 6.953125 0 Z M 4.765625 0 "/></g></g></g><g fill="#000000" fill-opacity="1"><g transform="translate(73.622212, 216.932042)"><g><path d="M 4.578125 -6.75 C 5.078125 -6.75 5.519531 -6.632812 5.90625 -6.40625 C 6.300781 -6.1875 6.609375 -5.863281 6.828125 -5.4375 C 7.046875 -5.007812 7.15625 -4.5 7.15625 -3.90625 L 7.15625 0 L 5.484375 0 L 5.484375 -3.671875 C 5.484375 -4.203125 5.347656 -4.609375 5.078125 -4.890625 C 4.816406 -5.171875 4.460938 -5.3125 4.015625 -5.3125 C 3.546875 -5.3125 3.175781 -5.171875 2.90625 -4.890625 C 2.644531 -4.609375 2.515625 -4.203125 2.515625 -3.671875 L 2.515625 0 L 0.828125 0 L 0.828125 -8.875 L 2.515625 -8.875 L 2.515625 -5.8125 C 2.722656 -6.101562 3.003906 -6.332031 3.359375 -6.5 C 3.722656 -6.664062 4.128906 -6.75 4.578125 -6.75 Z M 4.578125 -6.75 "/></g></g></g><g fill="#000000" fill-opacity="1"><g transform="translate(81.549995, 216.932042)"><g><path d="M 0.390625 -3.34375 C 0.390625 -4.019531 0.523438 -4.617188 0.796875 -5.140625 C 1.066406 -5.660156 1.429688 -6.054688 1.890625 -6.328125 C 2.347656 -6.609375 2.863281 -6.75 3.4375 -6.75 C 3.925781 -6.75 4.359375 -6.648438 4.734375 -6.453125 C 5.109375 -6.253906 5.40625 -6.003906 5.625 -5.703125 L 5.625 -6.640625 L 7.3125 -6.640625 L 7.3125 0 L 5.625 0 L 5.625 -0.96875 C 5.40625 -0.65625 5.101562 -0.394531 4.71875 -0.1875 C 4.34375 0.0078125 3.910156 0.109375 3.421875 0.109375 C 2.859375 0.109375 2.347656 -0.03125 1.890625 -0.3125 C 1.429688 -0.601562 1.066406 -1.007812 0.796875 -1.53125 C 0.523438 -2.0625 0.390625 -2.664062 0.390625 -3.34375 Z M 5.625 -3.328125 C 5.625 -3.734375 5.539062 -4.082031 5.375 -4.375 C 5.21875 -4.664062 5.003906 -4.890625 4.734375 -5.046875 C 4.460938 -5.203125 4.171875 -5.28125 3.859375 -5.28125 C 3.546875 -5.28125 3.257812 -5.203125 3 -5.046875 C 2.738281 -4.898438 2.523438 -4.679688 2.359375 -4.390625 C 2.191406 -4.097656 2.109375 -3.75 2.109375 -3.34375 C 2.109375 -2.945312 2.191406 -2.597656 2.359375 -2.296875 C 2.523438 -1.992188 2.738281 -1.765625 3 -1.609375 C 3.269531 -1.453125 3.554688 -1.375 3.859375 -1.375 C 4.171875 -1.375 4.460938 -1.453125 4.734375 -1.609375 C 5.003906 -1.765625 5.21875 -1.988281 5.375 -2.28125 C 5.539062 -2.570312 5.625 -2.921875 5.625 -3.328125 Z M 5.625 -3.328125 "/></g></g></g><g fill="#000000" fill-opacity="1"><g transform="translate(89.681672, 216.932042)"><g><path d="M 2.515625 -5.609375 C 2.722656 -5.960938 3 -6.238281 3.34375 -6.4375 C 3.695312 -6.644531 4.097656 -6.75 4.546875 -6.75 L 4.546875 -4.984375 L 4.109375 -4.984375 C 3.578125 -4.984375 3.175781 -4.859375 2.90625 -4.609375 C 2.644531 -4.359375 2.515625 -3.925781 2.515625 -3.3125 L 2.515625 0 L 0.828125 0 L 0.828125 -6.640625 L 2.515625 -6.640625 Z M 2.515625 -5.609375 "/></g></g></g><g fill="#000000" fill-opacity="1"><g transform="translate(94.527101, 216.932042)"><g/></g></g><g fill="#000000" fill-opacity="1"><g transform="translate(97.381588, 216.932042)"><g><path d="M 3.71875 0.078125 C 3.132812 0.078125 2.609375 -0.0195312 2.140625 -0.21875 C 1.671875 -0.414062 1.300781 -0.703125 1.03125 -1.078125 C 0.757812 -1.453125 0.617188 -1.894531 0.609375 -2.40625 L 2.40625 -2.40625 C 2.4375 -2.0625 2.5625 -1.789062 2.78125 -1.59375 C 3 -1.394531 3.300781 -1.296875 3.6875 -1.296875 C 4.070312 -1.296875 4.375 -1.390625 4.59375 -1.578125 C 4.820312 -1.765625 4.9375 -2.007812 4.9375 -2.3125 C 4.9375 -2.5625 4.859375 -2.765625 4.703125 -2.921875 C 4.554688 -3.085938 4.367188 -3.210938 4.140625 -3.296875 C 3.910156 -3.390625 3.597656 -3.492188 3.203125 -3.609375 C 2.660156 -3.773438 2.21875 -3.929688 1.875 -4.078125 C 1.539062 -4.234375 1.25 -4.46875 1 -4.78125 C 0.757812 -5.101562 0.640625 -5.53125 0.640625 -6.0625 C 0.640625 -6.550781 0.757812 -6.976562 1 -7.34375 C 1.25 -7.71875 1.597656 -8.003906 2.046875 -8.203125 C 2.492188 -8.398438 3.007812 -8.5 3.59375 -8.5 C 4.457031 -8.5 5.15625 -8.285156 5.6875 -7.859375 C 6.226562 -7.441406 6.53125 -6.859375 6.59375 -6.109375 L 4.734375 -6.109375 C 4.722656 -6.398438 4.601562 -6.640625 4.375 -6.828125 C 4.144531 -7.015625 3.84375 -7.109375 3.46875 -7.109375 C 3.132812 -7.109375 2.867188 -7.019531 2.671875 -6.84375 C 2.484375 -6.675781 2.390625 -6.4375 2.390625 -6.125 C 2.390625 -5.894531 2.460938 -5.707031 2.609375 -5.5625 C 2.753906 -5.414062 2.9375 -5.296875 3.15625 -5.203125 C 3.375 -5.109375 3.6875 -5.003906 4.09375 -4.890625 C 4.632812 -4.722656 5.078125 -4.554688 5.421875 -4.390625 C 5.765625 -4.234375 6.0625 -3.992188 6.3125 -3.671875 C 6.5625 -3.359375 6.6875 -2.941406 6.6875 -2.421875 C 6.6875 -1.972656 6.566406 -1.554688 6.328125 -1.171875 C 6.097656 -0.785156 5.757812 -0.476562 5.3125 -0.25 C 4.863281 -0.03125 4.332031 0.078125 3.71875 0.078125 Z M 3.71875 0.078125 "/></g></g></g><g fill="#000000" fill-opacity="1"><g transform="translate(104.685704, 216.932042)"><g><path d="M 4.578125 -6.75 C 5.078125 -6.75 5.519531 -6.632812 5.90625 -6.40625 C 6.300781 -6.1875 6.609375 -5.863281 6.828125 -5.4375 C 7.046875 -5.007812 7.15625 -4.5 7.15625 -3.90625 L 7.15625 0 L 5.484375 0 L 5.484375 -3.671875 C 5.484375 -4.203125 5.347656 -4.609375 5.078125 -4.890625 C 4.816406 -5.171875 4.460938 -5.3125 4.015625 -5.3125 C 3.546875 -5.3125 3.175781 -5.171875 2.90625 -4.890625 C 2.644531 -4.609375 2.515625 -4.203125 2.515625 -3.671875 L 2.515625 0 L 0.828125 0 L 0.828125 -8.875 L 2.515625 -8.875 L 2.515625 -5.8125 C 2.722656 -6.101562 3.003906 -6.332031 3.359375 -6.5 C 3.722656 -6.664062 4.128906 -6.75 4.578125 -6.75 Z M 4.578125 -6.75 "/></g></g></g><g fill="#000000" fill-opacity="1"><g transform="translate(112.613487, 216.932042)"><g><path d="M 0.390625 -3.34375 C 0.390625 -4.019531 0.523438 -4.617188 0.796875 -5.140625 C 1.066406 -5.660156 1.429688 -6.054688 1.890625 -6.328125 C 2.347656 -6.609375 2.863281 -6.75 3.4375 -6.75 C 3.925781 -6.75 4.359375 -6.648438 4.734375 -6.453125 C 5.109375 -6.253906 5.40625 -6.003906 5.625 -5.703125 L 5.625 -6.640625 L 7.3125 -6.640625 L 7.3125 0 L 5.625 0 L 5.625 -0.96875 C 5.40625 -0.65625 5.101562 -0.394531 4.71875 -0.1875 C 4.34375 0.0078125 3.910156 0.109375 3.421875 0.109375 C 2.859375 0.109375 2.347656 -0.03125 1.890625 -0.3125 C 1.429688 -0.601562 1.066406 -1.007812 0.796875 -1.53125 C 0.523438 -2.0625 0.390625 -2.664062 0.390625 -3.34375 Z M 5.625 -3.328125 C 5.625 -3.734375 5.539062 -4.082031 5.375 -4.375 C 5.21875 -4.664062 5.003906 -4.890625 4.734375 -5.046875 C 4.460938 -5.203125 4.171875 -5.28125 3.859375 -5.28125 C 3.546875 -5.28125 3.257812 -5.203125 3 -5.046875 C 2.738281 -4.898438 2.523438 -4.679688 2.359375 -4.390625 C 2.191406 -4.097656 2.109375 -3.75 2.109375 -3.34375 C 2.109375 -2.945312 2.191406 -2.597656 2.359375 -2.296875 C 2.523438 -1.992188 2.738281 -1.765625 3 -1.609375 C 3.269531 -1.453125 3.554688 -1.375 3.859375 -1.375 C 4.171875 -1.375 4.460938 -1.453125 4.734375 -1.609375 C 5.003906 -1.765625 5.21875 -1.988281 5.375 -2.28125 C 5.539062 -2.570312 5.625 -2.921875 5.625 -3.328125 Z M 5.625 -3.328125 "/></g></g></g><g fill="#000000" fill-opacity="1"><g transform="translate(120.745164, 216.932042)"><g><path d="M 2.515625 -5.609375 C 2.722656 -5.960938 3 -6.238281 3.34375 -6.4375 C 3.695312 -6.644531 4.097656 -6.75 4.546875 -6.75 L 4.546875 -4.984375 L 4.109375 -4.984375 C 3.578125 -4.984375 3.175781 -4.859375 2.90625 -4.609375 C 2.644531 -4.359375 2.515625 -3.925781 2.515625 -3.3125 L 2.515625 0 L 0.828125 0 L 0.828125 -6.640625 L 2.515625 -6.640625 Z M 2.515625 -5.609375 "/></g></g></g><g fill="#000000" fill-opacity="1"><g transform="translate(125.590593, 216.932042)"><g><path d="M 9.078125 -6.75 C 9.898438 -6.75 10.5625 -6.5 11.0625 -6 C 11.5625 -5.5 11.8125 -4.800781 11.8125 -3.90625 L 11.8125 0 L 10.125 0 L 10.125 -3.671875 C 10.125 -4.191406 9.992188 -4.585938 9.734375 -4.859375 C 9.472656 -5.140625 9.113281 -5.28125 8.65625 -5.28125 C 8.195312 -5.28125 7.832031 -5.140625 7.5625 -4.859375 C 7.289062 -4.585938 7.15625 -4.191406 7.15625 -3.671875 L 7.15625 0 L 5.484375 0 L 5.484375 -3.671875 C 5.484375 -4.191406 5.347656 -4.585938 5.078125 -4.859375 C 4.816406 -5.140625 4.460938 -5.28125 4.015625 -5.28125 C 3.546875 -5.28125 3.175781 -5.140625 2.90625 -4.859375 C 2.644531 -4.585938 2.515625 -4.191406 2.515625 -3.671875 L 2.515625 0 L 0.828125 0 L 0.828125 -6.640625 L 2.515625 -6.640625 L 2.515625 -5.84375 C 2.722656 -6.125 3 -6.34375 3.34375 -6.5 C 3.6875 -6.664062 4.0625 -6.75 4.46875 -6.75 C 4.988281 -6.75 5.453125 -6.632812 5.859375 -6.40625 C 6.265625 -6.1875 6.578125 -5.875 6.796875 -5.46875 C 7.015625 -5.851562 7.328125 -6.160156 7.734375 -6.390625 C 8.148438 -6.628906 8.597656 -6.75 9.078125 -6.75 Z M 9.078125 -6.75 "/></g></g></g><g fill="#000000" fill-opacity="1"><g transform="translate(138.159912, 216.932042)"><g><path d="M 0.390625 -3.34375 C 0.390625 -4.019531 0.523438 -4.617188 0.796875 -5.140625 C 1.066406 -5.660156 1.429688 -6.054688 1.890625 -6.328125 C 2.347656 -6.609375 2.863281 -6.75 3.4375 -6.75 C 3.925781 -6.75 4.359375 -6.648438 4.734375 -6.453125 C 5.109375 -6.253906 5.40625 -6.003906 5.625 -5.703125 L 5.625 -6.640625 L 7.3125 -6.640625 L 7.3125 0 L 5.625 0 L 5.625 -0.96875 C 5.40625 -0.65625 5.101562 -0.394531 4.71875 -0.1875 C 4.34375 0.0078125 3.910156 0.109375 3.421875 0.109375 C 2.859375 0.109375 2.347656 -0.03125 1.890625 -0.3125 C 1.429688 -0.601562 1.066406 -1.007812 0.796875 -1.53125 C 0.523438 -2.0625 0.390625 -2.664062 0.390625 -3.34375 Z M 5.625 -3.328125 C 5.625 -3.734375 5.539062 -4.082031 5.375 -4.375 C 5.21875 -4.664062 5.003906 -4.890625 4.734375 -5.046875 C 4.460938 -5.203125 4.171875 -5.28125 3.859375 -5.28125 C 3.546875 -5.28125 3.257812 -5.203125 3 -5.046875 C 2.738281 -4.898438 2.523438 -4.679688 2.359375 -4.390625 C 2.191406 -4.097656 2.109375 -3.75 2.109375 -3.34375 C 2.109375 -2.945312 2.191406 -2.597656 2.359375 -2.296875 C 2.523438 -1.992188 2.738281 -1.765625 3 -1.609375 C 3.269531 -1.453125 3.554688 -1.375 3.859375 -1.375 C 4.171875 -1.375 4.460938 -1.453125 4.734375 -1.609375 C 5.003906 -1.765625 5.21875 -1.988281 5.375 -2.28125 C 5.539062 -2.570312 5.625 -2.921875 5.625 -3.328125 Z M 5.625 -3.328125 "/></g></g></g><g fill="#000000" fill-opacity="1"><g transform="translate(146.291588, 216.932042)"><g/></g></g><g fill="#000000" fill-opacity="1"><g transform="translate(149.146075, 216.932042)"><g><path d="M 7.984375 0 L 6.3125 0 L 2.515625 -5.75 L 2.515625 0 L 0.828125 0 L 0.828125 -8.390625 L 2.515625 -8.390625 L 6.3125 -2.625 L 6.3125 -8.390625 L 7.984375 -8.390625 Z M 7.984375 0 "/></g></g></g><g fill="#000000" fill-opacity="1"><g transform="translate(157.961389, 216.932042)"><g><path d="M 6 -8.375 L 6 -7.015625 L 2.515625 -7.015625 L 2.515625 -4.875 L 5.1875 -4.875 L 5.1875 -3.546875 L 2.515625 -3.546875 L 2.515625 0 L 0.828125 0 L 0.828125 -8.375 Z M 6 -8.375 "/></g></g></g><g fill="#000000" fill-opacity="1"><g transform="translate(164.318005, 216.932042)"><g><path d="M 6.53125 -8.375 L 6.53125 -7.015625 L 4.296875 -7.015625 L 4.296875 0 L 2.609375 0 L 2.609375 -7.015625 L 0.390625 -7.015625 L 0.390625 -8.375 Z M 6.53125 -8.375 "/></g></g></g><g fill="#000000" fill-opacity="1"><g transform="translate(171.238331, 216.932042)"><g><path d="M 3.375 0.109375 C 2.832031 0.109375 2.34375 0.0078125 1.90625 -0.1875 C 1.476562 -0.382812 1.132812 -0.648438 0.875 -0.984375 C 0.625 -1.316406 0.488281 -1.6875 0.46875 -2.09375 L 2.15625 -2.09375 C 2.1875 -1.84375 2.3125 -1.632812 2.53125 -1.46875 C 2.757812 -1.300781 3.035156 -1.21875 3.359375 -1.21875 C 3.679688 -1.21875 3.929688 -1.28125 4.109375 -1.40625 C 4.285156 -1.53125 4.375 -1.691406 4.375 -1.890625 C 4.375 -2.109375 4.265625 -2.269531 4.046875 -2.375 C 3.828125 -2.488281 3.476562 -2.609375 3 -2.734375 C 2.5 -2.859375 2.09375 -2.984375 1.78125 -3.109375 C 1.46875 -3.234375 1.195312 -3.425781 0.96875 -3.6875 C 0.738281 -3.957031 0.625 -4.316406 0.625 -4.765625 C 0.625 -5.128906 0.726562 -5.460938 0.9375 -5.765625 C 1.15625 -6.078125 1.460938 -6.316406 1.859375 -6.484375 C 2.253906 -6.660156 2.71875 -6.75 3.25 -6.75 C 4.039062 -6.75 4.671875 -6.550781 5.140625 -6.15625 C 5.617188 -5.757812 5.878906 -5.226562 5.921875 -4.5625 L 4.3125 -4.5625 C 4.289062 -4.820312 4.179688 -5.03125 3.984375 -5.1875 C 3.796875 -5.34375 3.535156 -5.421875 3.203125 -5.421875 C 2.898438 -5.421875 2.664062 -5.363281 2.5 -5.25 C 2.332031 -5.144531 2.25 -4.988281 2.25 -4.78125 C 2.25 -4.5625 2.359375 -4.394531 2.578125 -4.28125 C 2.804688 -4.164062 3.160156 -4.046875 3.640625 -3.921875 C 4.117188 -3.804688 4.515625 -3.679688 4.828125 -3.546875 C 5.140625 -3.421875 5.40625 -3.222656 5.625 -2.953125 C 5.851562 -2.691406 5.972656 -2.335938 5.984375 -1.890625 C 5.984375 -1.503906 5.878906 -1.160156 5.671875 -0.859375 C 5.460938 -0.554688 5.15625 -0.316406 4.75 -0.140625 C 4.351562 0.0234375 3.894531 0.109375 3.375 0.109375 Z M 3.375 0.109375 "/></g></g></g></svg>