<svg xmlns="http://www.w3.org/2000/svg" xmlns:xlink="http://www.w3.org/1999/xlink" width="300" zoomAndPan="magnify" viewBox="0 0 224.87999 225" height="300" preserveAspectRatio="xMidYMid meet" version="1.0"><defs><g/><clipPath id="id1"><path d="M 0 0.0585938 L 224.761719 0.0585938 L 224.761719 224.9375 L 0 224.9375 Z M 0 0.0585938 " clip-rule="nonzero"/></clipPath><clipPath id="id2"><path d="M 0 202.453125 L 224.761719 202.453125 L 224.761719 224.9375 L 0 224.9375 Z M 0 202.453125 " clip-rule="nonzero"/></clipPath><clipPath id="id3"><path d="M 55.09375 46.910156 L 169.691406 46.910156 L 169.691406 161.507812 L 55.09375 161.507812 Z M 55.09375 46.910156 " clip-rule="nonzero"/></clipPath></defs><g clip-path="url(#id1)"><path fill="#7ed957" d="M 0 0.0585938 L 224.878906 0.0585938 L 224.878906 224.941406 L 0 224.941406 Z M 0 0.0585938 " fill-opacity="1" fill-rule="nonzero"/><path fill="#ffffff" d="M 0 0.0585938 L 224.878906 0.0585938 L 224.878906 224.941406 L 0 224.941406 Z M 0 0.0585938 " fill-opacity="1" fill-rule="nonzero"/><path fill="#7ed957" d="M 0 0.0585938 L 224.878906 0.0585938 L 224.878906 224.941406 L 0 224.941406 Z M 0 0.0585938 " fill-opacity="1" fill-rule="nonzero"/></g><g clip-path="url(#id2)"><path fill="#003c25" d="M 0.03125 202.453125 L 224.847656 202.453125 L 224.847656 225.691406 L 0.03125 225.691406 L 0.03125 202.453125 " fill-opacity="1" fill-rule="nonzero"/></g><g clip-path="url(#id3)"><path fill="#008037" d="M 112.394531 161.507812 C 97.097656 161.507812 82.691406 155.554688 71.882812 144.722656 C 61.050781 133.910156 55.09375 119.507812 55.09375 104.207031 C 55.09375 88.910156 61.050781 74.507812 71.882812 63.695312 C 82.691406 52.863281 97.097656 46.910156 112.394531 46.910156 C 127.691406 46.910156 142.097656 52.863281 152.90625 63.695312 C 163.738281 74.527344 169.691406 88.910156 169.691406 104.207031 C 169.691406 119.507812 163.738281 133.910156 152.90625 144.722656 C 142.097656 155.554688 127.691406 161.507812 112.394531 161.507812 Z M 112.394531 50.34375 C 98.011719 50.34375 84.476562 55.957031 74.308594 66.125 C 64.140625 76.292969 58.53125 89.828125 58.53125 104.207031 C 58.53125 118.589844 64.140625 132.125 74.308594 142.292969 C 84.476562 152.460938 98.011719 158.070312 112.394531 158.070312 C 126.777344 158.070312 140.3125 152.460938 150.480469 142.292969 C 160.648438 132.125 166.257812 118.589844 166.257812 104.207031 C 166.257812 89.828125 160.648438 76.292969 150.480469 66.125 C 140.3125 55.957031 126.777344 50.34375 112.394531 50.34375 Z M 112.394531 50.34375 " fill-opacity="1" fill-rule="nonzero"/></g><g fill="#9f3f73" fill-opacity="1"><g transform="translate(100.471033, 126.840365)"><g><path d="M 14.238281 0.472656 C 17.597656 0.472656 20.4375 -0.472656 22.753906 -2.367188 C 25.074219 -4.257812 26.253906 -6.765625 26.253906 -9.933594 C 26.253906 -11.683594 25.925781 -13.246094 25.355469 -14.570312 C 24.742188 -15.894531 23.9375 -16.9375 22.992188 -17.691406 C 21.996094 -18.449219 20.910156 -19.160156 19.773438 -19.726562 C 18.589844 -20.292969 17.410156 -20.769531 16.273438 -21.144531 C 15.089844 -21.523438 14.003906 -21.949219 13.058594 -22.375 C 12.0625 -22.753906 11.257812 -23.273438 10.691406 -23.9375 C 10.078125 -24.550781 9.792969 -25.308594 9.792969 -26.160156 C 9.792969 -27.25 10.125 -28.101562 10.878906 -28.667969 C 11.589844 -29.234375 12.535156 -29.519531 13.671875 -29.519531 C 15.753906 -29.519531 17.738281 -28.480469 19.539062 -26.445312 L 24.410156 -30.984375 C 23.085938 -32.5 21.523438 -33.683594 19.632812 -34.582031 C 17.738281 -35.480469 15.753906 -35.953125 13.671875 -35.953125 C 10.644531 -35.953125 8.042969 -35.054688 5.867188 -33.257812 C 3.691406 -31.460938 2.601562 -28.90625 2.601562 -25.6875 C 2.601562 -23.464844 3.167969 -21.621094 4.304688 -20.152344 C 5.441406 -18.640625 6.8125 -17.550781 8.421875 -16.839844 C 10.027344 -16.132812 11.683594 -15.515625 13.292969 -14.949219 C 14.902344 -14.382812 16.273438 -13.71875 17.410156 -12.960938 C 18.542969 -12.15625 19.113281 -11.164062 19.113281 -9.980469 C 19.113281 -8.847656 18.640625 -7.949219 17.789062 -7.285156 C 16.9375 -6.621094 15.753906 -6.339844 14.285156 -6.339844 C 12.632812 -6.339844 11.164062 -6.765625 9.933594 -7.617188 C 8.65625 -8.46875 7.710938 -9.601562 7.097656 -11.070312 L 1.089844 -7.332031 C 2.222656 -5.015625 3.925781 -3.121094 6.292969 -1.703125 C 8.65625 -0.238281 11.304688 0.472656 14.238281 0.472656 Z M 14.238281 0.472656 "/></g></g></g><path stroke-linecap="butt" transform="matrix(0.7496, 0, 0, 0.7496, 22.487998, 83.022689)" fill="none" stroke-linejoin="miter" d="M 120.575111 56.630163 C 125.06188 56.630163 128.834726 55.369074 131.930127 52.841684 C 135.030739 50.314294 136.599284 46.96876 136.599284 42.747758 C 136.599284 40.407968 136.166762 38.328734 135.395517 36.556956 C 134.582583 34.800811 133.519516 33.414655 132.253216 32.393277 C 130.929593 31.392743 129.46527 30.439109 127.954047 29.683498 C 126.385502 28.927886 124.796113 28.297342 123.290101 27.786653 C 121.716345 27.281175 120.252022 26.707952 118.990933 26.155574 C 117.662099 25.644885 116.599032 24.951807 115.843421 24.060707 C 115.014854 23.242562 114.644865 22.242028 114.644865 21.100795 C 114.644865 19.652105 115.09302 18.510871 116.093554 17.760471 C 117.047188 17.00486 118.297855 16.619237 119.8195 16.619237 C 122.591812 16.619237 125.244269 18.005393 127.646592 20.715172 L 134.150061 14.659859 C 132.378282 12.643158 130.299048 11.069402 127.771658 9.870846 C 125.244269 8.667079 122.591812 8.036534 119.8195 8.036534 C 115.786098 8.036534 112.299864 9.23509 109.407696 11.642624 C 106.494684 14.029314 105.045994 17.432171 105.045994 21.731339 C 105.045994 24.691251 105.801606 27.156108 107.323251 29.115486 C 108.834474 31.132187 110.668785 32.580877 112.810553 33.53451 C 114.95232 34.477722 117.172255 35.306289 119.314022 36.0619 C 121.455789 36.817512 123.290101 37.69819 124.796113 38.714357 C 126.322969 39.777424 127.07858 41.101046 127.07858 42.685225 C 127.07858 44.196448 126.448036 45.400215 125.306802 46.275682 C 124.165568 47.171993 122.591812 47.541982 120.637645 47.541982 C 118.433344 47.541982 116.479177 46.96876 114.827254 45.84837 C 113.133642 44.707137 111.872553 43.195914 111.038774 41.241747 L 103.024083 46.218359 C 104.550939 49.313761 106.817773 51.84115 109.975707 53.732784 C 113.133642 55.692163 116.661565 56.630163 120.575111 56.630163 Z M 120.575111 56.630163 " stroke="#000000" stroke-width="2.366959" stroke-opacity="1" stroke-miterlimit="4"/><g fill="#000000" fill-opacity="1"><g transform="translate(112.43999, 120.370922)"><g/></g></g><g fill="#000000" fill-opacity="1"><g transform="translate(46.348697, 216.932042)"><g><path d="M 6.9375 -5.78125 C 6.9375 -5.332031 6.828125 -4.910156 6.609375 -4.515625 C 6.398438 -4.128906 6.066406 -3.816406 5.609375 -3.578125 C 5.160156 -3.335938 4.59375 -3.21875 3.90625 -3.21875 L 2.515625 -3.21875 L 2.515625 0 L 0.828125 0 L 0.828125 -8.375 L 3.90625 -8.375 C 4.5625 -8.375 5.113281 -8.257812 5.5625 -8.03125 C 6.019531 -7.8125 6.363281 -7.503906 6.59375 -7.109375 C 6.820312 -6.722656 6.9375 -6.28125 6.9375 -5.78125 Z M 3.84375 -4.578125 C 4.300781 -4.578125 4.640625 -4.679688 4.859375 -4.890625 C 5.085938 -5.097656 5.203125 -5.394531 5.203125 -5.78125 C 5.203125 -6.601562 4.75 -7.015625 3.84375 -7.015625 L 2.515625 -7.015625 L 2.515625 -4.578125 Z M 3.84375 -4.578125 "/></g></g></g><g fill="#000000" fill-opacity="1"><g transform="translate(53.640826, 216.932042)"><g><path d="M 2.515625 -5.609375 C 2.722656 -5.960938 3 -6.238281 3.34375 -6.4375 C 3.695312 -6.644531 4.097656 -6.75 4.546875 -6.75 L 4.546875 -4.984375 L 4.109375 -4.984375 C 3.578125 -4.984375 3.175781 -4.859375 2.90625 -4.609375 C 2.644531 -4.359375 2.515625 -3.925781 2.515625 -3.3125 L 2.515625 0 L 0.828125 0 L 0.828125 -6.640625 L 2.515625 -6.640625 Z M 2.515625 -5.609375 "/></g></g></g><g fill="#000000" fill-opacity="1"><g transform="translate(58.486255, 216.932042)"><g><path d="M 0.390625 -3.34375 C 0.390625 -4.019531 0.523438 -4.617188 0.796875 -5.140625 C 1.066406 -5.660156 1.429688 -6.054688 1.890625 -6.328125 C 2.347656 -6.609375 2.863281 -6.75 3.4375 -6.75 C 3.925781 -6.75 4.359375 -6.648438 4.734375 -6.453125 C 5.109375 -6.253906 5.40625 -6.003906 5.625 -5.703125 L 5.625 -6.640625 L 7.3125 -6.640625 L 7.3125 0 L 5.625 0 L 5.625 -0.96875 C 5.40625 -0.65625 5.101562 -0.394531 4.71875 -0.1875 C 4.34375 0.0078125 3.910156 0.109375 3.421875 0.109375 C 2.859375 0.109375 2.347656 -0.03125 1.890625 -0.3125 C 1.429688 -0.601562 1.066406 -1.007812 0.796875 -1.53125 C 0.523438 -2.0625 0.390625 -2.664062 0.390625 -3.34375 Z M 5.625 -3.328125 C 5.625 -3.734375 5.539062 -4.082031 5.375 -4.375 C 5.21875 -4.664062 5.003906 -4.890625 4.734375 -5.046875 C 4.460938 -5.203125 4.171875 -5.28125 3.859375 -5.28125 C 3.546875 -5.28125 3.257812 -5.203125 3 -5.046875 C 2.738281 -4.898438 2.523438 -4.679688 2.359375 -4.390625 C 2.191406 -4.097656 2.109375 -3.75 2.109375 -3.34375 C 2.109375 -2.945312 2.191406 -2.597656 2.359375 -2.296875 C 2.523438 -1.992188 2.738281 -1.765625 3 -1.609375 C 3.269531 -1.453125 3.554688 -1.375 3.859375 -1.375 C 4.171875 -1.375 4.460938 -1.453125 4.734375 -1.609375 C 5.003906 -1.765625 5.21875 -1.988281 5.375 -2.28125 C 5.539062 -2.570312 5.625 -2.921875 5.625 -3.328125 Z M 5.625 -3.328125 "/></g></g></g><g fill="#000000" fill-opacity="1"><g transform="translate(66.617932, 216.932042)"><g><path d="M 4.765625 0 L 2.515625 -2.828125 L 2.515625 0 L 0.828125 0 L 0.828125 -8.875 L 2.515625 -8.875 L 2.515625 -3.828125 L 4.734375 -6.640625 L 6.921875 -6.640625 L 4 -3.3125 L 6.953125 0 Z M 4.765625 0 "/></g></g></g><g fill="#000000" fill-opacity="1"><g transform="translate(73.622212, 216.932042)"><g><path d="M 4.578125 -6.75 C 5.078125 -6.75 5.519531 -6.632812 5.90625 -6.40625 C 6.300781 -6.1875 6.609375 -5.863281 6.828125 -5.4375 C 7.046875 -5.007812 7.15625 -4.5 7.15625 -3.90625 L 7.15625 0 L 5.484375 0 L 5.484375 -3.671875 C 5.484375 -4.203125 5.347656 -4.609375 5.078125 -4.890625 C 4.816406 -5.171875 4.460938 -5.3125 4.015625 -5.3125 C 3.546875 -5.3125 3.175781 -5.171875 2.90625 -4.890625 C 2.644531 -4.609375 2.515625 -4.203125 2.515625 -3.671875 L 2.515625 0 L 0.828125 0 L 0.828125 -8.875 L 2.515625 -8.875 L 2.515625 -5.8125 C 2.722656 -6.101562 3.003906 -6.332031 3.359375 -6.5 C 3.722656 -6.664062 4.128906 -6.75 4.578125 -6.75 Z M 4.578125 -6.75 "/></g></g></g><g fill="#000000" fill-opacity="1"><g transform="translate(81.549995, 216.932042)"><g><path d="M 0.390625 -3.34375 C 0.390625 -4.019531 0.523438 -4.617188 0.796875 -5.140625 C 1.066406 -5.660156 1.429688 -6.054688 1.890625 -6.328125 C 2.347656 -6.609375 2.863281 -6.75 3.4375 -6.75 C 3.925781 -6.75 4.359375 -6.648438 4.734375 -6.453125 C 5.109375 -6.253906 5.40625 -6.003906 5.625 -5.703125 L 5.625 -6.640625 L 7.3125 -6.640625 L 7.3125 0 L 5.625 0 L 5.625 -0.96875 C 5.40625 -0.65625 5.101562 -0.394531 4.71875 -0.1875 C 4.34375 0.0078125 3.910156 0.109375 3.421875 0.109375 C 2.859375 0.109375 2.347656 -0.03125 1.890625 -0.3125 C 1.429688 -0.601562 1.066406 -1.007812 0.796875 -1.53125 C 0.523438 -2.0625 0.390625 -2.664062 0.390625 -3.34375 Z M 5.625 -3.328125 C 5.625 -3.734375 5.539062 -4.082031 5.375 -4.375 C 5.21875 -4.664062 5.003906 -4.890625 4.734375 -5.046875 C 4.460938 -5.203125 4.171875 -5.28125 3.859375 -5.28125 C 3.546875 -5.28125 3.257812 -5.203125 3 -5.046875 C 2.738281 -4.898438 2.523438 -4.679688 2.359375 -4.390625 C 2.191406 -4.097656 2.109375 -3.75 2.109375 -3.34375 C 2.109375 -2.945312 2.191406 -2.597656 2.359375 -2.296875 C 2.523438 -1.992188 2.738281 -1.765625 3 -1.609375 C 3.269531 -1.453125 3.554688 -1.375 3.859375 -1.375 C 4.171875 -1.375 4.460938 -1.453125 4.734375 -1.609375 C 5.003906 -1.765625 5.21875 -1.988281 5.375 -2.28125 C 5.539062 -2.570312 5.625 -2.921875 5.625 -3.328125 Z M 5.625 -3.328125 "/></g></g></g><g fill="#000000" fill-opacity="1"><g transform="translate(89.681672, 216.932042)"><g><path d="M 2.515625 -5.609375 C 2.722656 -5.960938 3 -6.238281 3.34375 -6.4375 C 3.695312 -6.644531 4.097656 -6.75 4.546875 -6.75 L 4.546875 -4.984375 L 4.109375 -4.984375 C 3.578125 -4.984375 3.175781 -4.859375 2.90625 -4.609375 C 2.644531 -4.359375 2.515625 -3.925781 2.515625 -3.3125 L 2.515625 0 L 0.828125 0 L 0.828125 -6.640625 L 2.515625 -6.640625 Z M 2.515625 -5.609375 "/></g></g></g><g fill="#000000" fill-opacity="1"><g transform="translate(94.527101, 216.932042)"><g/></g></g><g fill="#000000" fill-opacity="1"><g transform="translate(97.381588, 216.932042)"><g><path d="M 3.71875 0.078125 C 3.132812 0.078125 2.609375 -0.0195312 2.140625 -0.21875 C 1.671875 -0.414062 1.300781 -0.703125 1.03125 -1.078125 C 0.757812 -1.453125 0.617188 -1.894531 0.609375 -2.40625 L 2.40625 -2.40625 C 2.4375 -2.0625 2.5625 -1.789062 2.78125 -1.59375 C 3 -1.394531 3.300781 -1.296875 3.6875 -1.296875 C 4.070312 -1.296875 4.375 -1.390625 4.59375 -1.578125 C 4.820312 -1.765625 4.9375 -2.007812 4.9375 -2.3125 C 4.9375 -2.5625 4.859375 -2.765625 4.703125 -2.921875 C 4.554688 -3.085938 4.367188 -3.210938 4.140625 -3.296875 C 3.910156 -3.390625 3.597656 -3.492188 3.203125 -3.609375 C 2.660156 -3.773438 2.21875 -3.929688 1.875 -4.078125 C 1.539062 -4.234375 1.25 -4.46875 1 -4.78125 C 0.757812 -5.101562 0.640625 -5.53125 0.640625 -6.0625 C 0.640625 -6.550781 0.757812 -6.976562 1 -7.34375 C 1.25 -7.71875 1.597656 -8.003906 2.046875 -8.203125 C 2.492188 -8.398438 3.007812 -8.5 3.59375 -8.5 C 4.457031 -8.5 5.15625 -8.285156 5.6875 -7.859375 C 6.226562 -7.441406 6.53125 -6.859375 6.59375 -6.109375 L 4.734375 -6.109375 C 4.722656 -6.398438 4.601562 -6.640625 4.375 -6.828125 C 4.144531 -7.015625 3.84375 -7.109375 3.46875 -7.109375 C 3.132812 -7.109375 2.867188 -7.019531 2.671875 -6.84375 C 2.484375 -6.675781 2.390625 -6.4375 2.390625 -6.125 C 2.390625 -5.894531 2.460938 -5.707031 2.609375 -5.5625 C 2.753906 -5.414062 2.9375 -5.296875 3.15625 -5.203125 C 3.375 -5.109375 3.6875 -5.003906 4.09375 -4.890625 C 4.632812 -4.722656 5.078125 -4.554688 5.421875 -4.390625 C 5.765625 -4.234375 6.0625 -3.992188 6.3125 -3.671875 C 6.5625 -3.359375 6.6875 -2.941406 6.6875 -2.421875 C 6.6875 -1.972656 6.566406 -1.554688 6.328125 -1.171875 C 6.097656 -0.785156 5.757812 -0.476562 5.3125 -0.25 C 4.863281 -0.03125 4.332031 0.078125 3.71875 0.078125 Z M 3.71875 0.078125 "/></g></g></g><g fill="#000000" fill-opacity="1"><g transform="translate(104.685704, 216.932042)"><g><path d="M 4.578125 -6.75 C 5.078125 -6.75 5.519531 -6.632812 5.90625 -6.40625 C 6.300781 -6.1875 6.609375 -5.863281 6.828125 -5.4375 C 7.046875 -5.007812 7.15625 -4.5 7.15625 -3.90625 L 7.15625 0 L 5.484375 0 L 5.484375 -3.671875 C 5.484375 -4.203125 5.347656 -4.609375 5.078125 -4.890625 C 4.816406 -5.171875 4.460938 -5.3125 4.015625 -5.3125 C 3.546875 -5.3125 3.175781 -5.171875 2.90625 -4.890625 C 2.644531 -4.609375 2.515625 -4.203125 2.515625 -3.671875 L 2.515625 0 L 0.828125 0 L 0.828125 -8.875 L 2.515625 -8.875 L 2.515625 -5.8125 C 2.722656 -6.101562 3.003906 -6.332031 3.359375 -6.5 C 3.722656 -6.664062 4.128906 -6.75 4.578125 -6.75 Z M 4.578125 -6.75 "/></g></g></g><g fill="#000000" fill-opacity="1"><g transform="translate(112.613487, 216.932042)"><g><path d="M 0.390625 -3.34375 C 0.390625 -4.019531 0.523438 -4.617188 0.796875 -5.140625 C 1.066406 -5.660156 1.429688 -6.054688 1.890625 -6.328125 C 2.347656 -6.609375 2.863281 -6.75 3.4375 -6.75 C 3.925781 -6.75 4.359375 -6.648438 4.734375 -6.453125 C 5.109375 -6.253906 5.40625 -6.003906 5.625 -5.703125 L 5.625 -6.640625 L 7.3125 -6.640625 L 7.3125 0 L 5.625 0 L 5.625 -0.96875 C 5.40625 -0.65625 5.101562 -0.394531 4.71875 -0.1875 C 4.34375 0.0078125 3.910156 0.109375 3.421875 0.109375 C 2.859375 0.109375 2.347656 -0.03125 1.890625 -0.3125 C 1.429688 -0.601562 1.066406 -1.007812 0.796875 -1.53125 C 0.523438 -2.0625 0.390625 -2.664062 0.390625 -3.34375 Z M 5.625 -3.328125 C 5.625 -3.734375 5.539062 -4.082031 5.375 -4.375 C 5.21875 -4.664062 5.003906 -4.890625 4.734375 -5.046875 C 4.460938 -5.203125 4.171875 -5.28125 3.859375 -5.28125 C 3.546875 -5.28125 3.257812 -5.203125 3 -5.046875 C 2.738281 -4.898438 2.523438 -4.679688 2.359375 -4.390625 C 2.191406 -4.097656 2.109375 -3.75 2.109375 -3.34375 C 2.109375 -2.945312 2.191406 -2.597656 2.359375 -2.296875 C 2.523438 -1.992188 2.738281 -1.765625 3 -1.609375 C 3.269531 -1.453125 3.554688 -1.375 3.859375 -1.375 C 4.171875 -1.375 4.460938 -1.453125 4.734375 -1.609375 C 5.003906 -1.765625 5.21875 -1.988281 5.375 -2.28125 C 5.539062 -2.570312 5.625 -2.921875 5.625 -3.328125 Z M 5.625 -3.328125 "/></g></g></g><g fill="#000000" fill-opacity="1"><g transform="translate(120.745164, 216.932042)"><g><path d="M 2.515625 -5.609375 C 2.722656 -5.960938 3 -6.238281 3.34375 -6.4375 C 3.695312 -6.644531 4.097656 -6.75 4.546875 -6.75 L 4.546875 -4.984375 L 4.109375 -4.984375 C 3.578125 -4.984375 3.175781 -4.859375 2.90625 -4.609375 C 2.644531 -4.359375 2.515625 -3.925781 2.515625 -3.3125 L 2.515625 0 L 0.828125 0 L 0.828125 -6.640625 L 2.515625 -6.640625 Z M 2.515625 -5.609375 "/></g></g></g><g fill="#000000" fill-opacity="1"><g transform="translate(125.590593, 216.932042)"><g><path d="M 9.078125 -6.75 C 9.898438 -6.75 10.5625 -6.5 11.0625 -6 C 11.5625 -5.5 11.8125 -4.800781 11.8125 -3.90625 L 11.8125 0 L 10.125 0 L 10.125 -3.671875 C 10.125 -4.191406 9.992188 -4.585938 9.734375 -4.859375 C 9.472656 -5.140625 9.113281 -5.28125 8.65625 -5.28125 C 8.195312 -5.28125 7.832031 -5.140625 7.5625 -4.859375 C 7.289062 -4.585938 7.15625 -4.191406 7.15625 -3.671875 L 7.15625 0 L 5.484375 0 L 5.484375 -3.671875 C 5.484375 -4.191406 5.347656 -4.585938 5.078125 -4.859375 C 4.816406 -5.140625 4.460938 -5.28125 4.015625 -5.28125 C 3.546875 -5.28125 3.175781 -5.140625 2.90625 -4.859375 C 2.644531 -4.585938 2.515625 -4.191406 2.515625 -3.671875 L 2.515625 0 L 0.828125 0 L 0.828125 -6.640625 L 2.515625 -6.640625 L 2.515625 -5.84375 C 2.722656 -6.125 3 -6.34375 3.34375 -6.5 C 3.6875 -6.664062 4.0625 -6.75 4.46875 -6.75 C 4.988281 -6.75 5.453125 -6.632812 5.859375 -6.40625 C 6.265625 -6.1875 6.578125 -5.875 6.796875 -5.46875 C 7.015625 -5.851562 7.328125 -6.160156 7.734375 -6.390625 C 8.148438 -6.628906 8.597656 -6.75 9.078125 -6.75 Z M 9.078125 -6.75 "/></g></g></g><g fill="#000000" fill-opacity="1"><g transform="translate(138.159912, 216.932042)"><g><path d="M 0.390625 -3.34375 C 0.390625 -4.019531 0.523438 -4.617188 0.796875 -5.140625 C 1.066406 -5.660156 1.429688 -6.054688 1.890625 -6.328125 C 2.347656 -6.609375 2.863281 -6.75 3.4375 -6.75 C 3.925781 -6.75 4.359375 -6.648438 4.734375 -6.453125 C 5.109375 -6.253906 5.40625 -6.003906 5.625 -5.703125 L 5.625 -6.640625 L 7.3125 -6.640625 L 7.3125 0 L 5.625 0 L 5.625 -0.96875 C 5.40625 -0.65625 5.101562 -0.394531 4.71875 -0.1875 C 4.34375 0.0078125 3.910156 0.109375 3.421875 0.109375 C 2.859375 0.109375 2.347656 -0.03125 1.890625 -0.3125 C 1.429688 -0.601562 1.066406 -1.007812 0.796875 -1.53125 C 0.523438 -2.0625 0.390625 -2.664062 0.390625 -3.34375 Z M 5.625 -3.328125 C 5.625 -3.734375 5.539062 -4.082031 5.375 -4.375 C 5.21875 -4.664062 5.003906 -4.890625 4.734375 -5.046875 C 4.460938 -5.203125 4.171875 -5.28125 3.859375 -5.28125 C 3.546875 -5.28125 3.257812 -5.203125 3 -5.046875 C 2.738281 -4.898438 2.523438 -4.679688 2.359375 -4.390625 C 2.191406 -4.097656 2.109375 -3.75 2.109375 -3.34375 C 2.109375 -2.945312 2.191406 -2.597656 2.359375 -2.296875 C 2.523438 -1.992188 2.738281 -1.765625 3 -1.609375 C 3.269531 -1.453125 3.554688 -1.375 3.859375 -1.375 C 4.171875 -1.375 4.460938 -1.453125 4.734375 -1.609375 C 5.003906 -1.765625 5.21875 -1.988281 5.375 -2.28125 C 5.539062 -2.570312 5.625 -2.921875 5.625 -3.328125 Z M 5.625 -3.328125 "/></g></g></g><g fill="#000000" fill-opacity="1"><g transform="translate(146.291588, 216.932042)"><g/></g></g><g fill="#000000" fill-opacity="1"><g transform="translate(149.146075, 216.932042)"><g><path d="M 7.984375 0 L 6.3125 0 L 2.515625 -5.75 L 2.515625 0 L 0.828125 0 L 0.828125 -8.390625 L 2.515625 -8.390625 L 6.3125 -2.625 L 6.3125 -8.390625 L 7.984375 -8.390625 Z M 7.984375 0 "/></g></g></g><g fill="#000000" fill-opacity="1"><g transform="translate(157.961389, 216.932042)"><g><path d="M 6 -8.375 L 6 -7.015625 L 2.515625 -7.015625 L 2.515625 -4.875 L 5.1875 -4.875 L 5.1875 -3.546875 L 2.515625 -3.546875 L 2.515625 0 L 0.828125 0 L 0.828125 -8.375 Z M 6 -8.375 "/></g></g></g><g fill="#000000" fill-opacity="1"><g transform="translate(164.318005, 216.932042)"><g><path d="M 6.53125 -8.375 L 6.53125 -7.015625 L 4.296875 -7.015625 L 4.296875 0 L 2.609375 0 L 2.609375 -7.015625 L 0.390625 -7.015625 L 0.390625 -8.375 Z M 6.53125 -8.375 "/></g></g></g><g fill="#000000" fill-opacity="1"><g transform="translate(171.238331, 216.932042)"><g><path d="M 3.375 0.109375 C 2.832031 0.109375 2.34375 0.0078125 1.90625 -0.1875 C 1.476562 -0.382812 1.132812 -0.648438 0.875 -0.984375 C 0.625 -1.316406 0.488281 -1.6875 0.46875 -2.09375 L 2.15625 -2.09375 C 2.1875 -1.84375 2.3125 -1.632812 2.53125 -1.46875 C 2.757812 -1.300781 3.035156 -1.21875 3.359375 -1.21875 C 3.679688 -1.21875 3.929688 -1.28125 4.109375 -1.40625 C 4.285156 -1.53125 4.375 -1.691406 4.375 -1.890625 C 4.375 -2.109375 4.265625 -2.269531 4.046875 -2.375 C 3.828125 -2.488281 3.476562 -2.609375 3 -2.734375 C 2.5 -2.859375 2.09375 -2.984375 1.78125 -3.109375 C 1.46875 -3.234375 1.195312 -3.425781 0.96875 -3.6875 C 0.738281 -3.957031 0.625 -4.316406 0.625 -4.765625 C 0.625 -5.128906 0.726562 -5.460938 0.9375 -5.765625 C 1.15625 -6.078125 1.460938 -6.316406 1.859375 -6.484375 C 2.253906 -6.660156 2.71875 -6.75 3.25 -6.75 C 4.039062 -6.75 4.671875 -6.550781 5.140625 -6.15625 C 5.617188 -5.757812 5.878906 -5.226562 5.921875 -4.5625 L 4.3125 -4.5625 C 4.289062 -4.820312 4.179688 -5.03125 3.984375 -5.1875 C 3.796875 -5.34375 3.535156 -5.421875 3.203125 -5.421875 C 2.898438 -5.421875 2.664062 -5.363281 2.5 -5.25 C 2.332031 -5.144531 2.25 -4.988281 2.25 -4.78125 C 2.25 -4.5625 2.359375 -4.394531 2.578125 -4.28125 C 2.804688 -4.164062 3.160156 -4.046875 3.640625 -3.921875 C 4.117188 -3.804688 4.515625 -3.679688 4.828125 -3.546875 C 5.140625 -3.421875 5.40625 -3.222656 5.625 -2.953125 C 5.851562 -2.691406 5.972656 -2.335938 5.984375 -1.890625 C 5.984375 -1.503906 5.878906 -1.160156 5.671875 -0.859375 C 5.460938 -0.554688 5.15625 -0.316406 4.75 -0.140625 C 4.351562 0.0234375 3.894531 0.109375 3.375 0.109375 Z M 3.375 0.109375 "/></g></g></g></svg>